<?xml version="1.0" encoding="utf-8"?>
<svg xmlns="http://www.w3.org/2000/svg" height="38" viewBox="0 0 104 38" width="104">
  <path d="m44.873 0 4.384 2.75L53.642 0l4.384 2.75L62.409 0v7.386H44.874V0Z" fill="#FFC400"/>
  <path d="M49.796 30.056h-4.922V9.848h4.922v20.208ZM50.289 19.952l6.334-10.104h5.786l-6.334 10.104 6.334 10.104h-5.786l-6.334-10.104ZM63.194 14.014h4.923v16.042h-4.923V14.014ZM80.876 21.357c0-2.189-1.21-3.398-3.08-3.398-1.872 0-3.081 1.21-3.081 3.398v8.699h-4.923V14.014h4.923v2.13c.979-1.353 2.706-2.303 4.865-2.303 3.714 0 6.19 2.534 6.19 6.853v9.362h-4.894v-8.7ZM95.555 18.074c-1.843 0-3.512 1.382-3.512 3.945 0 2.563 1.67 4.002 3.512 4.002 1.871 0 3.512-1.41 3.512-3.974 0-2.562-1.64-3.973-3.512-3.973Zm-1.44-4.29c2.361 0 4.089 1.065 4.952 2.505v-2.275h4.923v16.039c0 4.29-2.476 7.947-8.032 7.947-4.779 0-7.888-2.419-8.32-6.248h4.865c.317 1.209 1.526 1.986 3.225 1.986 1.87 0 3.34-.979 3.34-3.685v-2.275c-.893 1.41-2.592 2.534-4.952 2.534-3.945 0-7.082-3.225-7.082-8.293s3.137-8.236 7.082-8.236ZM10.461 25.522c.45-.374.676-.915.676-1.626 0-.71-.235-1.267-.705-1.67s-1.118-.604-1.942-.604H4.92v4.462h3.626c.825 0 1.463-.187 1.914-.562Zm-5.54-7.498h3.223c.806 0 1.425-.178 1.857-.533.431-.354.647-.878.647-1.569 0-.69-.216-1.219-.647-1.583-.432-.364-1.051-.547-1.857-.547H4.921v4.231Zm10.13 3.41a4.95 4.95 0 0 1 1.065 3.124c0 1.689-.59 3.027-1.77 4.016-1.18.989-2.825 1.482-4.936 1.482H0V9.848h9.094c2.053 0 3.66.471 4.82 1.411 1.16.94 1.742 2.216 1.742 3.829 0 1.19-.313 2.178-.936 2.965-.623.787-1.453 1.333-2.489 1.64 1.17.25 2.11.83 2.82 1.742ZM28.04 20.47c0-.844-.288-1.515-.864-2.014-.575-.5-1.295-.75-2.159-.75-.825 0-1.52.241-2.086.72-.566.48-.916 1.162-1.05 2.044h6.158Zm4.95 2.735H21.851c.076.998.398 1.761.964 2.288.566.529 1.261.792 2.086.792 1.228 0 2.082-.518 2.562-1.555H32.7a7.195 7.195 0 0 1-1.453 2.85c-.7.846-1.578 1.508-2.633 1.987-1.056.48-2.236.72-3.54.72-1.573 0-2.974-.336-4.201-1.008a7.165 7.165 0 0 1-2.878-2.878c-.691-1.248-1.037-2.707-1.037-4.376 0-1.67.34-3.128 1.022-4.376a7.073 7.073 0 0 1 2.864-2.879c1.227-.67 2.637-1.007 4.23-1.007 1.554 0 2.936.327 4.144.98a7.026 7.026 0 0 1 2.835 2.791c.68 1.209 1.021 2.62 1.021 4.232 0 .46-.028.94-.086 1.439ZM43.297 25.882v4.174h-2.504c-1.784 0-3.175-.436-4.172-1.31-.998-.873-1.497-2.298-1.497-4.274V18.08h-1.957v-4.067h1.957V9.848h4.921v4.166h3.224v4.067h-3.224v6.448c0 .48.115.826.345 1.036.23.212.614.317 1.152.317h1.755Z" fill="#fff"/>
</svg>